<svg width="15" height="15" viewBox="0 0 15 15" fill="none" xmlns="http://www.w3.org/2000/svg">
<g clip-path="url(#clip0_318_2409)">
<path d="M8.01952 1.36272C7.85667 1.28844 7.67976 1.25 7.50077 1.25C7.32178 1.25 7.14487 1.28844 6.98202 1.36272L1.62577 3.80022C1.51486 3.84913 1.42057 3.92922 1.35437 4.03076C1.28817 4.13229 1.25293 4.25089 1.25293 4.3721C1.25293 4.49331 1.28817 4.6119 1.35437 4.71344C1.42057 4.81497 1.51486 4.89507 1.62577 4.94397L6.98827 7.38772C7.15112 7.462 7.32803 7.50045 7.50702 7.50045C7.68601 7.50045 7.86292 7.462 8.02577 7.38772L13.3883 4.95022C13.4992 4.90132 13.5935 4.82122 13.6597 4.71969C13.7259 4.61815 13.7611 4.49956 13.7611 4.37835C13.7611 4.25714 13.7259 4.13854 13.6597 4.03701C13.5935 3.93547 13.4992 3.85538 13.3883 3.80647L8.01952 1.36272Z" stroke="#C4C4C4" stroke-width="1.25" stroke-linecap="round" stroke-linejoin="round"/>
<path d="M13.749 11.0312L8.01777 13.6312C7.85492 13.7055 7.67802 13.744 7.49902 13.744C7.32003 13.744 7.14313 13.7055 6.98027 13.6312L1.24902 11.0312" stroke="#C4C4C4" stroke-width="1.25" stroke-linecap="round" stroke-linejoin="round"/>
<path d="M13.749 7.90625L8.01777 10.5062C7.85492 10.5805 7.67802 10.619 7.49902 10.619C7.32003 10.619 7.14313 10.5805 6.98027 10.5062L1.24902 7.90625" stroke="#C4C4C4" stroke-width="1.25" stroke-linecap="round" stroke-linejoin="round"/>
</g>
<defs>
<clipPath id="clip0_318_2409">
<rect width="15" height="15" fill="white"/>
</clipPath>
</defs>
</svg>
